<svg xmlns="http://www.w3.org/2000/svg" viewBox="0 0 180 180" fill="none">
  <rect width="180" height="180" rx="40" fill="#2563eb"/>
  <path d="M50 40H40C34.4772 40 30 44.4772 30 50V130C30 135.523 34.4772 140 40 140H95C100.523 140 105 135.523 105 130V50C105 44.4772 100.523 40 95 40H85" stroke="white" stroke-width="8" stroke-linecap="round"/>
  <path d="M85 40C85 34.4772 80.5228 30 75 30H60C54.4772 30 50 34.4772 50 40C50 45.5228 54.4772 50 60 50H75C80.5228 50 85 45.5228 85 40Z" stroke="white" stroke-width="8"/>
  <path d="M50 90L60 100L85 75" stroke="white" stroke-width="8" stroke-linecap="round" stroke-linejoin="round"/>
  <path d="M115 70L150 70" stroke="white" stroke-width="8" stroke-linecap="round"/>
  <path d="M115 95L150 95" stroke="white" stroke-width="8" stroke-linecap="round"/>
  <path d="M115 120L140 120" stroke="white" stroke-width="8" stroke-linecap="round"/>
</svg>

